<svg width="703" height="439" viewBox="0 0 703 439" fill="none" xmlns="http://www.w3.org/2000/svg">
<path d="M37.94 402.71H23.42V437.23H0V341.07H37.94C61.5 341.07 73.28 354.36 73.28 372.07C73.32 387.92 62.46 402.71 37.94 402.71ZM36.16 384.08C45.47 384.08 49.45 379.42 49.45 372.08C49.45 364.74 45.45 360.02 36.16 360.02H23.42V384.13L36.16 384.08Z" fill="white"/>
<path d="M108.91 437.23H85.48V360.79H108.91V373.53C114.25 365.45 122.61 359.97 132.91 359.97V384.76H126.47C115.38 384.76 108.94 388.6 108.94 401.76L108.91 437.23Z" fill="white"/>
<path d="M178.91 438.33C156.45 438.33 139.46 423.26 139.46 399.01C139.46 374.76 156.86 359.7 179.18 359.7C201.5 359.7 218.91 374.76 218.91 399.01C218.91 423.26 201.37 438.33 178.91 438.33ZM178.91 418.05C187.27 418.05 195.07 411.89 195.07 399.05C195.07 386.21 187.4 380.05 179.18 380.05C170.69 380.05 163.29 386.05 163.29 399.05C163.29 412.05 170.42 418.05 178.91 418.05Z" fill="white"/>
<path d="M255.32 341.07H280.39L294.22 411.07L311.34 341.07H337.1L353.53 411.07L367.53 341.07H392.74L367.67 437.23H339.32L323.98 373.95L308.09 437.23H279.74L255.32 341.07Z" fill="white"/>
<path d="M438.52 438.33C416.05 438.33 399.89 423.26 399.89 399.01C399.89 374.76 415.78 359.7 438.52 359.7C460.85 359.7 476.6 374.49 476.6 397.78C476.594 400.069 476.457 402.356 476.19 404.63H423.19C424.02 414.63 430.19 419.29 437.72 419.29C444.29 419.29 447.99 416 449.91 411.89H474.82C471.12 426.82 457.56 438.33 438.52 438.33ZM423.32 391.61H452.64C452.64 383.26 446.06 378.47 438.25 378.47C430.44 378.47 424.68 383.16 423.32 391.61Z" fill="white"/>
<path d="M517.98 359.7C529.35 359.7 537.43 364.91 541.54 371.62V360.79H564.96V437.23H541.54V426.41C537.29 433.12 529.21 438.33 517.84 438.33C499.21 438.33 484.28 422.98 484.28 398.87C484.28 374.76 499.21 359.7 517.98 359.7ZM524.83 380.16C516.06 380.16 508.11 386.73 508.11 398.92C508.11 411.11 516.11 417.92 524.83 417.92C533.55 417.92 541.54 411.21 541.54 399.02C541.54 386.83 533.73 380.16 524.83 380.16Z" fill="white"/>
<path d="M605.38 437.23H581.96V360.79H605.38V373.53C610.72 365.45 619.08 359.97 629.38 359.97V384.76H622.94C611.85 384.76 605.41 388.6 605.41 401.76L605.38 437.23Z" fill="white"/>
<path d="M671.68 438.33C651.28 438.33 637.58 426.95 636.48 412.16H659.63C660.18 417.5 664.97 421.07 671.41 421.07C677.41 421.07 680.59 418.32 680.59 414.9C680.59 402.57 638.95 411.48 638.95 383.4C638.95 370.4 650.04 359.7 670.04 359.7C689.77 359.7 700.72 370.7 702.23 385.7H680.59C679.9 380.49 675.93 377.06 669.35 377.06C663.88 377.06 660.86 379.26 660.86 382.96C660.86 395.15 702.23 386.52 702.64 414.96C702.64 428.33 690.86 438.33 671.68 438.33Z" fill="white"/>
<path d="M248.06 80.38H196.33L312.52 281.73L337.99 237.16L248.06 80.38Z" fill="white"/>
<path d="M365.05 105.84L390.52 149.62L476.47 0H226.57L389.72 280.93L415.19 237.16L302.57 44.16H400.46L365.05 105.84Z" fill="white"/>
<path d="M455.38 80.77L506.31 80.78L429.12 215.27L403.65 171.5L455.38 80.77Z" fill="white"/>
</svg>
